<svg width="24" height="24" viewBox="0 0 24 24" fill="none" xmlns="http://www.w3.org/2000/svg">
<path d="M12.8319 12.9077L17.8936 12.9136C18.1155 12.9136 18.3283 12.8255 18.4852 12.6686C18.6421 12.5116 18.7303 12.2988 18.7303 12.0769C18.7303 11.855 18.6421 11.6421 18.4852 11.4852C18.3283 11.3283 18.1155 11.2402 17.8936 11.2402L12.8319 11.246L12.8377 6.18434C12.8377 5.96242 12.7496 5.74959 12.5927 5.59267C12.4358 5.43575 12.2229 5.3476 12.001 5.3476C11.7791 5.3476 11.5663 5.43575 11.4093 5.59267C11.2524 5.74959 11.1643 5.96242 11.1643 6.18434L11.1702 11.246L6.10845 11.2402C5.99844 11.2397 5.88943 11.261 5.78771 11.3029C5.68599 11.3448 5.59357 11.4064 5.51578 11.4842C5.43799 11.562 5.37637 11.6544 5.33448 11.7562C5.29259 11.8579 5.27126 11.9669 5.27171 12.0769C5.27126 12.1869 5.29259 12.2959 5.33448 12.3976C5.37637 12.4994 5.43799 12.5918 5.51578 12.6696C5.59357 12.7474 5.68599 12.809 5.78771 12.8509C5.88943 12.8928 5.99844 12.9141 6.10845 12.9136L11.1702 12.9077L11.1643 17.9695C11.1638 18.0795 11.1851 18.1885 11.227 18.2902C11.2689 18.3919 11.3305 18.4843 11.4083 18.5621C11.4861 18.6399 11.5785 18.7015 11.6803 18.7434C11.782 18.7853 11.891 18.8066 12.001 18.8062C12.111 18.8066 12.22 18.7853 12.3217 18.7434C12.4235 18.7015 12.5159 18.6399 12.5937 18.5621C12.6715 18.4843 12.7331 18.3919 12.775 18.2902C12.8169 18.1885 12.8382 18.0795 12.8377 17.9695L12.8319 12.9077Z" fill="#0C0024"/>
</svg>
