<svg width="24" height="24" viewBox="0 0 24 24" fill="none" xmlns="http://www.w3.org/2000/svg">
<path d="M5.64013 5.5392H9.38587V18.1972L11.0865 18.7892V19.5534H3.93948V18.7892L5.64013 18.1972V5.5392ZM13.1854 6.62632H1.6576L2.93847 5.99127L1.11942 9.64013L0 9.54326L0.570472 4H1.32392L2.9277 5.17323L1.56072 4.86109H13.2823L12.1736 5.17323L13.7774 4H14.5309L15.1014 9.54326L13.9819 9.64013L12.1629 5.99127L13.1854 6.62632Z" fill="#0C0024"/>
<path d="M20.1251 16.3243C20.1251 16.7836 20.2722 17.1244 20.5664 17.3469C20.8606 17.5622 21.3127 17.6698 21.9226 17.6698C22.2168 17.6698 22.5361 17.6411 22.8806 17.5837C23.225 17.5263 23.5982 17.4402 24 17.3254V18.251C23.3829 18.6313 22.8375 18.9399 22.3639 19.1767C21.8975 19.4063 21.4777 19.5714 21.1046 19.6718C20.7315 19.7795 20.3798 19.8333 20.0498 19.8333C19.3896 19.8333 18.8155 19.7292 18.3276 19.5211C17.8396 19.3059 17.4629 18.9794 17.1974 18.5416C16.9319 18.0967 16.7991 17.5406 16.7991 16.8733V11.739L15.1415 10.5443V9.93075C15.3496 9.81594 15.5864 9.68319 15.8519 9.5325C16.1174 9.37463 16.3973 9.206 16.6915 9.02661C16.9929 8.84721 17.2943 8.66423 17.5956 8.47766C17.897 8.28392 18.1876 8.09376 18.4675 7.90719C18.7545 7.72062 19.0164 7.54123 19.2532 7.36901H20.1251V9.8877V16.3243ZM18.7689 11.3408L18.7904 9.62937H23.6448L23.5049 11.3408H18.7689Z" fill="#0C0024"/>
</svg>
